<svg width="41" height="47" viewBox="0 0 41 47" fill="none" xmlns="http://www.w3.org/2000/svg">
<path d="M40.6469 11.8171L40.7598 11.7418C40.534 11.3279 40.1953 10.9515 39.8566 10.7633L21.6793 0.301037C21.3782 0.112866 20.9643 0.0375977 20.5126 0.0375977C20.061 0.0375977 19.6471 0.1505 19.346 0.301037L1.28158 10.801C0.641795 11.1773 0.190186 12.1182 0.190186 12.8332V33.7955C0.190186 34.2094 0.265454 34.661 0.528893 35.075L0.453625 35.1127C0.641796 35.4137 0.905235 35.6772 1.16867 35.8277L19.3083 46.3276C19.6094 46.5158 20.0234 46.5911 20.475 46.5911C20.9266 46.5911 21.3406 46.4782 21.6417 46.3276L39.7061 35.8277C40.3459 35.4514 40.7975 34.5105 40.7975 33.7955V12.7956C40.8351 12.4945 40.7975 12.1558 40.6469 11.8171ZM20.5126 32.5159C23.9374 32.5159 26.9481 30.6342 28.5287 27.8493L33.3835 30.7095C30.8244 35.1503 26.0072 38.161 20.5126 38.161C12.3084 38.161 5.64714 31.4998 5.64714 23.2955C5.64714 15.0913 12.3084 8.43002 20.5126 8.43002C26.0449 8.43002 30.862 11.4784 33.4212 15.9569L28.5287 18.7794C26.9481 15.9569 23.9374 14.0751 20.5126 14.0751C15.432 14.0751 11.2923 18.2149 11.2923 23.2955C11.2923 28.3761 15.432 32.5159 20.5126 32.5159Z" fill="#03599C"/>
</svg>
