<svg width="41" height="47" viewBox="0 0 41 47" fill="none" xmlns="http://www.w3.org/2000/svg">
<path d="M40.6469 11.822L40.7598 11.7467C40.534 11.3327 40.1953 10.9564 39.8566 10.7682L21.6793 0.30592C21.3782 0.117749 20.9643 0.0424805 20.5126 0.0424805C20.061 0.0424805 19.6471 0.155383 19.346 0.30592L1.28158 10.8059C0.641795 11.1822 0.190186 12.1231 0.190186 12.8381V33.8003C0.190186 34.2143 0.265454 34.6659 0.528893 35.0799L0.453625 35.1175C0.641796 35.4186 0.905235 35.682 1.16867 35.8326L19.3083 46.3325C19.6094 46.5207 20.0234 46.596 20.475 46.596C20.9266 46.596 21.3406 46.4831 21.6417 46.3325L39.7061 35.8326C40.3459 35.4562 40.7975 34.5154 40.7975 33.8003V12.8005C40.8351 12.4994 40.7975 12.1607 40.6469 11.822ZM27.2868 24.0531V22.5477H29.1685V20.666H31.0502V22.5477H32.9319V24.0531H31.0502V25.9348H29.1685V24.0531H27.2868ZM28.5287 18.7843C26.9481 15.9617 23.9374 14.08 20.5126 14.08C15.432 14.08 11.2923 18.2198 11.2923 23.3004C11.2923 28.381 15.432 32.5208 20.5126 32.5208C23.9374 32.5208 26.9481 30.6391 28.5287 27.8541L33.3835 30.7143C30.8244 35.1552 26.0072 38.1659 20.5126 38.1659C12.3084 38.1659 5.64714 31.5047 5.64714 23.3004C5.64714 15.0962 12.3084 8.4349 20.5126 8.4349C26.0449 8.4349 30.862 11.4833 33.4212 15.9617L28.5287 18.7843ZM39.7061 24.0531H37.8244V25.9348H36.319V24.0531H34.0609V22.5477H36.319V20.666H37.8244V22.5477H39.7061V24.0531Z" fill="#9C033A"/>
</svg>
