<svg width="42" height="48" viewBox="0 0 42 48" fill="none" xmlns="http://www.w3.org/2000/svg">
<path d="M0.359192 0.915039L4.09218 42.8236L20.8425 47.494L37.6397 42.8065L41.3756 0.915039H0.359192ZM33.6204 10.5165L32.3778 24.4776L32.3816 24.5529L32.3764 24.7263V24.7248L31.4935 34.4867L31.3962 35.3539L20.8674 38.2661V38.2664L20.8592 38.2735L10.3486 35.345L9.6369 27.2743H14.7911L15.1567 31.3781L20.8689 32.9263L20.8674 32.9292V32.9285L26.6007 31.3585L27.2066 24.6755H15.2213L15.1185 23.5457L14.8842 20.899L14.7614 19.4779H27.6621L28.1314 14.2803H8.48229L8.37945 13.1513L8.14556 10.5039L8.0223 9.08269H33.7433L33.6204 10.5165Z" fill="#1572B6"/>
</svg>
