<svg width="42" height="43" viewBox="0 0 42 43" fill="none" xmlns="http://www.w3.org/2000/svg">
<path d="M0.138428 0.919434V42.7145H41.9335V0.919434H0.138428ZM22.246 36.5332C21.6291 37.7867 20.4515 38.6102 19.087 39.0078C16.9902 39.4893 14.9847 39.2148 13.4928 38.3193C12.4944 37.7068 11.7147 36.7639 11.1854 35.6776L14.3685 33.7282C14.3962 33.7399 14.4798 33.8911 14.5915 34.0863C14.9974 34.7664 15.3475 35.2479 16.0356 35.5859C16.7117 35.8166 18.1959 35.9641 18.769 34.7744C19.1191 34.1692 19.0077 32.2239 19.0077 30.0717C19.0074 26.6896 19.0231 23.3216 19.0231 19.978H22.9381C22.9381 23.656 22.9582 27.1393 22.9381 30.7283C22.9465 32.9284 23.1374 34.8898 22.246 36.5332ZM38.4872 35.4271C37.1264 40.0821 29.5391 40.2332 26.5071 37.1578C25.8665 36.4339 25.4649 36.0557 25.0827 35.2201C26.694 34.2933 26.694 34.2933 28.2618 33.3862C29.1134 34.6952 29.9009 35.4151 31.3175 35.7096C33.2395 35.9444 35.1731 35.284 34.7394 33.2427C34.2937 31.5756 30.804 31.17 28.429 29.3872C26.0179 27.7679 25.4529 23.8332 27.4343 21.5849C28.0946 20.7534 29.2208 20.1328 30.4024 19.8345L31.6355 19.6751C34.0031 19.6272 35.483 20.2525 36.5694 21.4656C36.8716 21.7718 37.1184 22.1022 37.5798 22.818C36.3186 23.6218 36.3226 23.6142 34.516 24.7837C34.1302 23.9525 33.4899 23.4309 32.8131 23.2042C31.7626 22.8859 30.4378 23.232 30.163 24.3421C30.0677 24.6841 30.0874 25.0024 30.2389 25.5675C30.6645 26.5381 32.0929 26.9601 33.3742 27.5489C37.0625 29.0448 38.308 30.6488 38.6143 32.558C38.9092 34.2017 38.5431 35.268 38.4872 35.4271Z" fill="#F0DB4F"/>
</svg>
