<svg width="46" height="47" viewBox="0 0 46 47" fill="none" xmlns="http://www.w3.org/2000/svg">
<path d="M17.5149 22.8391H28.4887C31.5434 22.8391 33.9498 20.2544 33.9498 17.1868V6.7253C33.9498 3.74768 31.4539 1.5107 28.4721 1.01393C26.5851 0.699687 24.6353 0.556677 22.7566 0.56571C20.8787 0.574365 19.1392 0.734311 17.5612 1.01393C12.9115 1.83473 12.1219 3.55462 12.1219 6.7253V10.7962H23.0359V12.3016H7.89788C4.705 12.3016 1.90878 14.2239 1.03454 17.8755C0.0255677 22.0605 -0.019217 24.6192 1.03454 28.9889C1.81545 32.2413 3.68022 34.5057 6.87348 34.5057H10.6166V29.5952C10.6166 25.9684 13.7884 22.8391 17.5149 22.8391ZM16.8232 8.12039C15.6844 8.12039 14.7616 7.18744 14.7616 6.03358C14.7616 4.87482 15.684 3.93322 16.8232 3.93322C17.9579 3.93322 18.8852 4.87482 18.8852 6.03358C18.8848 7.18744 17.9575 8.12039 16.8232 8.12039ZM44.9694 17.8755C44.1799 14.6962 42.6726 12.3016 39.4752 12.3016H35.4551V17.1868C35.4551 20.9691 32.1456 23.9681 28.4887 23.9681H17.5149C14.5087 23.9681 12.1219 26.7252 12.1219 29.736V40.1983C12.1219 43.1751 14.6604 44.9266 17.5646 45.7809C21.0428 46.8034 24.3365 46.9882 28.4977 45.7809C31.2634 44.9797 33.9498 43.3682 33.9498 40.1983V36.0111H23.0359V34.5057H39.4752C42.6681 34.5057 43.8585 32.332 44.9694 28.9885C46.1161 25.5469 46.0668 22.29 44.9694 17.8755ZM29.18 38.8024C30.3192 38.8024 31.242 39.7354 31.242 40.89C31.242 42.0476 30.3196 42.9896 29.18 42.9896C28.0453 42.9896 27.1184 42.048 27.1184 40.89C27.1184 39.7354 28.0453 38.8024 29.18 38.8024Z" fill="#FFD845"/>
</svg>
