<svg width="26" height="22" viewBox="0 0 26 22" fill="none" xmlns="http://www.w3.org/2000/svg">
<path d="M23.5959 6.03135C23.8651 5.18736 23.9999 4.31245 23.9999 3.40629C23.9999 2.19793 23.7454 1.06246 23.237 0C22.1703 0 21.228 0.203309 20.4101 0.609434C19.5927 1.01567 18.6604 1.64584 17.6138 2.49996C16.2977 2.16668 14.9013 2.00003 13.4259 2.00003C11.8105 2.00003 10.2699 2.18244 8.80419 2.54697C7.73738 1.67189 6.7951 1.02886 5.97745 0.617315C5.15979 0.205772 4.21259 5.46964e-05 3.13562 5.46964e-05C2.6271 1.06252 2.37287 2.19804 2.37287 3.40634C2.37287 4.32307 2.5074 5.20849 2.77666 6.06249C1.42042 7.71885 0.742432 9.78121 0.742432 12.25C0.742432 14.4169 1.05141 16.1406 1.66973 17.422C1.99888 18.0988 2.42751 18.6978 2.95604 19.2188C3.48436 19.7395 4.08764 20.1616 4.76574 20.4846C5.44394 20.8073 6.1268 21.0757 6.8149 21.289C7.50295 21.5025 8.26319 21.6589 9.09582 21.7575C9.92841 21.8568 10.6638 21.9219 11.3019 21.9533C11.94 21.9842 12.6479 22 13.4259 22C14.343 22 15.1754 21.9764 15.9236 21.9298C16.6715 21.883 17.5263 21.7682 18.4886 21.5863C19.4508 21.4039 20.2984 21.1563 21.0315 20.844C21.7644 20.5316 22.4675 20.0835 23.1405 19.5004C23.8135 18.9168 24.3393 18.2243 24.7185 17.4221C25.3264 16.1304 25.6306 14.4063 25.6306 12.25C25.6303 9.77082 24.9522 7.69799 23.5959 6.03135ZM21.8017 17.3982C21.4825 18.0807 21.0786 18.6167 20.5901 19.0077C20.1014 19.3984 19.4932 19.7108 18.7654 19.9455C18.0373 20.1797 17.3396 20.3333 16.6715 20.406C16.0031 20.479 15.2605 20.5153 14.4427 20.5153H11.9299C11.1123 20.5153 10.3693 20.479 9.70131 20.406C9.03328 20.3333 8.33532 20.1797 7.60736 19.9455C6.87965 19.7108 6.27149 19.3984 5.78278 19.0077C5.29406 18.6166 4.89026 18.0807 4.57117 17.3982C4.25214 16.7157 4.09257 15.9164 4.09257 14.9999C4.09257 13.7495 4.43659 12.6869 5.12469 11.8123C5.81274 10.9373 6.74497 10.4999 7.92147 10.4999C8.35041 10.4999 9.32261 10.6092 10.8382 10.828C11.5461 10.9425 12.3289 10.9998 13.1863 10.9998C14.044 10.9998 14.8267 10.9427 15.5345 10.828C17.0704 10.6091 18.0422 10.4999 18.4513 10.4999C19.6278 10.4999 20.56 10.9375 21.248 11.8123C21.9361 12.6873 22.28 13.7495 22.28 14.9999C22.28 15.9166 22.1204 16.7163 21.8017 17.3982Z" fill="#715EEE"/>
<path d="M9.48443 12.5311C9.18027 12.1768 8.81896 11.9996 8.40007 11.9996C7.98108 11.9996 7.61972 12.177 7.31561 12.5311C7.01166 12.8851 6.79714 13.281 6.67256 13.7181C6.54772 14.156 6.48549 14.583 6.48549 14.9999C6.48549 15.4163 6.54788 15.8434 6.67256 16.2812C6.79698 16.7186 7.0114 17.1143 7.31561 17.4682C7.61987 17.8226 7.98108 17.9998 8.40007 17.9998C8.81896 17.9998 9.18042 17.8222 9.48443 17.4682C9.78848 17.1142 10.0029 16.7186 10.1275 16.2812C10.2522 15.8434 10.3145 15.4163 10.3145 14.9999C10.3145 14.5833 10.2523 14.156 10.1275 13.7181C10.0028 13.2812 9.78864 12.8854 9.48443 12.5311Z" fill="#715EEE"/>
<path d="M19.0569 12.5311C18.7528 12.1768 18.3914 11.9996 17.9726 11.9996C17.554 11.9996 17.1924 12.177 16.8882 12.5311C16.5841 12.8851 16.3697 13.281 16.2453 13.7181C16.1204 14.156 16.058 14.583 16.058 14.9999C16.058 15.4163 16.1204 15.8434 16.2453 16.2812C16.3697 16.7186 16.5842 17.1143 16.8882 17.4682C17.1924 17.8226 17.554 17.9998 17.9726 17.9998C18.3914 17.9998 18.7529 17.8222 19.0569 17.4682C19.3608 17.1142 19.5753 16.7186 19.7001 16.2812C19.8247 15.8434 19.887 15.4163 19.887 14.9999C19.887 14.5833 19.8247 14.156 19.7001 13.7181C19.5753 13.2812 19.3608 12.8854 19.0569 12.5311Z" fill="#715EEE"/>
</svg>
