<svg width="24" height="24" viewBox="0 0 24 24" fill="none" xmlns="http://www.w3.org/2000/svg">
<path d="M17.1797 0.221588H6.41669C2.91377 0.221588 0.0640259 3.07133 0.0640259 6.57425V17.3374C0.0640259 20.8402 2.91377 23.6899 6.41669 23.6899H17.1799C20.6826 23.6899 23.5324 20.8402 23.5324 17.3374V6.57425C23.5324 3.07133 20.6826 0.221588 17.1797 0.221588V0.221588ZM22.1565 17.3374C22.1565 20.0815 19.924 22.3141 17.1797 22.3141H6.41669C3.6724 22.3141 1.43984 20.0815 1.43984 17.3374V6.57425C1.43984 3.82997 3.6724 1.5974 6.41669 1.5974H17.1799C19.924 1.5974 22.1565 3.82997 22.1565 6.57425V17.3374Z" fill="#715EEE"/>
<path d="M11.7982 5.53882C8.25981 5.53882 5.38124 8.41739 5.38124 11.9558C5.38124 15.4941 8.25981 18.3727 11.7982 18.3727C15.3366 18.3727 18.2151 15.4941 18.2151 11.9558C18.2151 8.41739 15.3366 5.53882 11.7982 5.53882ZM11.7982 16.9969C9.01863 16.9969 6.75705 14.7355 6.75705 11.9558C6.75705 9.1762 9.01863 6.91463 11.7982 6.91463C14.5779 6.91463 16.8393 9.1762 16.8393 11.9558C16.8393 14.7355 14.5779 16.9969 11.7982 16.9969Z" fill="#715EEE"/>
<path d="M18.3686 3.25989C17.3229 3.25989 16.4725 4.11055 16.4725 5.15602C16.4725 6.20167 17.3229 7.05233 18.3686 7.05233C19.4142 7.05233 20.2649 6.20167 20.2649 5.15602C20.2649 4.11037 19.4142 3.25989 18.3686 3.25989ZM18.3686 5.67634C18.0818 5.67634 17.8483 5.44285 17.8483 5.15602C17.8483 4.869 18.0818 4.6357 18.3686 4.6357C18.6556 4.6357 18.8891 4.869 18.8891 5.15602C18.8891 5.44285 18.6556 5.67634 18.3686 5.67634Z" fill="#715EEE"/>
</svg>
