<svg width="22" height="25" viewBox="0 0 22 25" fill="none" xmlns="http://www.w3.org/2000/svg">
<path d="M5.00643 7.61279H1.07827C0.637914 7.61279 0.279694 7.97101 0.279694 8.41137V23.2154C0.279694 23.6555 0.637914 24.0138 1.07827 24.0138H5.00643C5.4466 24.0138 5.80483 23.6555 5.80483 23.2154V8.41137C5.80483 7.97101 5.4466 7.61279 5.00643 7.61279ZM4.43754 22.6465H1.64698V8.98007H4.43754V22.6465Z" fill="#715EEE"/>
<path d="M3.04231 0.712219C1.50631 0.712219 0.256897 1.96163 0.256897 3.49745C0.256897 5.03344 1.50631 6.28285 3.04231 6.28285C4.57794 6.28285 5.82754 5.03344 5.82754 3.49745C5.82754 1.96163 4.57812 0.712219 3.04231 0.712219ZM3.04231 4.91557C2.26027 4.91557 1.62418 4.27949 1.62418 3.49745C1.62418 2.71558 2.26027 2.0795 3.04231 2.0795C3.82417 2.0795 4.46026 2.71558 4.46026 3.49745C4.46026 4.27931 3.82417 4.91557 3.04231 4.91557Z" fill="#715EEE"/>
<path d="M18.5089 9.34843C17.5699 8.56461 16.3762 8.14542 15.1488 8.16817C14.3865 8.18222 13.6416 8.36604 12.9666 8.69884V8.37564C12.9666 7.95448 12.6251 7.61298 12.2039 7.61298H8.20428C7.78313 7.61298 7.44162 7.95448 7.44162 8.37564V23.2511C7.44162 23.6724 7.78313 24.0138 8.20428 24.0138H12.2828C12.6604 24.0138 12.9666 23.7076 12.9666 23.3302V14.4611C12.9666 13.7018 13.5607 13.0593 14.3195 13.0368C15.1081 13.0135 15.757 13.648 15.757 14.4314V23.3444C15.757 23.714 16.0567 24.0138 16.4263 24.0138H20.3461C20.7157 24.0138 21.0154 23.714 21.0154 23.3444V14.7025C21.0154 12.6297 20.1018 10.678 18.5089 9.34843ZM19.6481 22.6465H17.1244V14.4314C17.1244 12.9082 15.8851 11.669 14.3618 11.669C12.8386 11.669 11.5993 12.9082 11.5993 14.4314V22.6465H8.8089V8.98008H11.5993V9.97367H11.6002C11.6 10.1347 11.656 10.2965 11.7712 10.4268C12.0213 10.7095 12.4535 10.7358 12.7362 10.4855C13.4098 9.88923 14.2755 9.55181 15.174 9.5351C16.0734 9.51803 16.9463 9.82487 17.6329 10.398C18.9137 11.4672 19.6481 13.0361 19.6481 14.7025V22.6465Z" fill="#715EEE"/>
</svg>
