<svg width="57" height="57" viewBox="0 0 57 57" fill="none" xmlns="http://www.w3.org/2000/svg">
<path d="M39.278 17.7129C36.4194 14.8542 32.6185 13.2799 28.5758 13.2799C24.5331 13.2799 20.7321 14.8542 17.8735 17.7129C15.0148 20.5715 13.4405 24.3725 13.4405 28.4152C13.4405 32.4579 15.0148 36.2588 17.8735 39.1175C20.7321 41.9761 24.5331 43.5505 28.5758 43.5505C32.6185 43.5505 36.4194 41.9761 39.278 39.1175C42.1367 36.2588 43.7111 32.4579 43.7111 28.4152C43.7111 24.3725 42.1367 20.5715 39.278 17.7129ZM28.5758 41.7768C21.2081 41.7768 15.2141 35.7828 15.2141 28.4152C15.2141 21.0475 21.2081 15.0536 28.5758 15.0536C35.9434 15.0536 41.9374 21.0475 41.9374 28.4152C41.9374 35.7828 35.9434 41.7768 28.5758 41.7768Z" fill="#C4C4C4"/>
<path d="M35.7 27.5283H21.4515C20.9617 27.5283 20.5647 27.9253 20.5647 28.4152C20.5647 32.8325 24.1584 36.4262 28.5757 36.4262C32.9931 36.4262 36.5868 32.8325 36.5868 28.4152C36.5868 27.9253 36.1898 27.5283 35.7 27.5283ZM28.5757 34.6525C25.4374 34.6525 22.833 32.3228 22.4012 29.302H34.7503C34.3185 32.3228 31.7141 34.6525 28.5757 34.6525Z" fill="#C4C4C4"/>
<path d="M33.3254 24.0775C33.815 24.0775 34.2122 23.6805 34.2122 23.1907V22.2408C34.2122 21.7512 33.815 21.354 33.3254 21.354C32.8355 21.354 32.4385 21.7512 32.4385 22.2408V23.1907C32.4385 23.6805 32.8355 24.0775 33.3254 24.0775Z" fill="#C4C4C4"/>
<path d="M23.8263 24.0775C24.3162 24.0775 24.7132 23.6805 24.7132 23.1907V22.2408C24.7132 21.7512 24.3162 21.354 23.8263 21.354C23.3365 21.354 22.9395 21.7512 22.9395 22.2408V23.1907C22.9395 23.6805 23.3365 24.0775 23.8263 24.0775Z" fill="#C4C4C4"/>
<circle cx="28.5758" cy="28.4152" r="27.3556" stroke="#E5E5E5" stroke-width="2"/>
</svg>
