<svg width="57" height="57" viewBox="0 0 57 57" fill="none" xmlns="http://www.w3.org/2000/svg">
<path d="M28.6112 14.3449C23.4082 14.3449 19.1752 18.5779 19.1752 23.7809C19.1752 26.7753 20.587 29.5695 22.9747 31.3487V32.1367C22.3932 32.6478 22.0251 33.3963 22.0251 34.2296C22.0251 34.9633 22.3105 35.6314 22.7756 36.1296C22.3105 36.6277 22.0251 37.2956 22.0251 38.0293C22.0251 39.2792 22.8521 40.3395 23.9879 40.6914C24.3532 42.914 26.2867 44.6154 28.6112 44.6154C30.9356 44.6154 32.8694 42.914 33.2347 40.6914C34.3703 40.3392 35.1975 39.2792 35.1975 38.0291C35.1975 37.2956 34.9121 36.6275 34.4469 36.1293C34.9121 35.6312 35.1975 34.9633 35.1975 34.2296C35.1975 33.3963 34.8294 32.6478 34.2476 32.1365V31.3487C36.6354 29.5695 38.0472 26.7753 38.0472 23.7809C38.0472 18.5779 33.8142 14.3449 28.6112 14.3449ZM32.4109 33.2166C32.9694 33.2166 33.4239 33.6711 33.4239 34.2296C33.4239 34.7882 32.9694 35.2427 32.4109 35.2427H24.8117C24.253 35.2427 23.7985 34.7882 23.7985 34.2296C23.7985 33.6711 24.253 33.2166 24.8117 33.2166H32.4109ZM28.6112 42.8418C27.3142 42.8418 26.2126 41.9896 25.8364 40.8159H31.386C31.01 41.9898 29.9082 42.8418 28.6112 42.8418ZM32.4109 39.0422H24.8117C24.253 39.0422 23.7985 38.5877 23.7985 38.0293C23.7985 37.4707 24.253 37.0164 24.8117 37.0164H32.4109C32.9694 37.0164 33.4239 37.4707 33.4239 38.0293C33.4239 38.5877 32.9694 39.0422 32.4109 39.0422ZM32.8675 30.1529C32.6215 30.3176 32.474 30.594 32.474 30.8899V31.4446C32.453 31.4441 32.4319 31.443 32.4109 31.443H31.3978V27.9478L32.6712 26.6744C33.0176 26.328 33.0176 25.7666 32.6712 25.4201C32.325 25.0737 31.7634 25.0737 31.4172 25.4201L29.8839 26.9534C29.7176 27.1197 29.6241 27.3451 29.6241 27.5804V31.443H27.5982V27.5804C27.5982 27.3453 27.5047 27.1197 27.3384 26.9534L25.8052 25.4201C25.459 25.074 24.8976 25.074 24.5512 25.4201C24.2047 25.7666 24.2047 26.328 24.5512 26.6744L25.8246 27.9478V31.4432H24.8117C24.7904 31.4432 24.7694 31.4441 24.7484 31.4446V30.8899C24.7484 30.594 24.6008 30.3176 24.3548 30.1529C22.2223 28.7252 20.9489 26.3432 20.9489 23.7809C20.9489 19.5557 24.3863 16.1186 28.6112 16.1186C32.8361 16.1186 36.2735 19.5557 36.2735 23.7809C36.2735 26.3432 35.0001 28.7252 32.8675 30.1529Z" fill="#C4C4C4"/>
<path d="M17.1493 23.7809C17.1493 23.2911 16.7523 22.8941 16.2625 22.8941H14.3627C13.8729 22.8941 13.4759 23.2911 13.4759 23.7809C13.4759 24.2705 13.8729 24.6677 14.3627 24.6677H16.2625C16.7523 24.6677 17.1493 24.2705 17.1493 23.7809Z" fill="#C4C4C4"/>
<path d="M42.8596 22.8941H40.9599C40.4703 22.8941 40.073 23.2911 40.073 23.7809C40.073 24.2705 40.4703 24.6677 40.9599 24.6677H42.8596C43.3495 24.6677 43.7465 24.2705 43.7465 23.7809C43.7465 23.2911 43.3495 22.8941 42.8596 22.8941Z" fill="#C4C4C4"/>
<path d="M17.4734 29.1871L15.8281 30.137C15.4041 30.382 15.2588 30.9243 15.5036 31.3485C15.6678 31.6331 15.966 31.792 16.2724 31.792C16.4228 31.792 16.5754 31.7539 16.7149 31.673L18.3602 30.7234C18.7844 30.4783 18.9297 29.9361 18.6849 29.5118C18.4401 29.0876 17.8976 28.9423 17.4734 29.1871Z" fill="#C4C4C4"/>
<path d="M39.3063 18.4936C39.4567 18.4936 39.6091 18.4553 39.7488 18.3747L41.3943 17.4246C41.8183 17.1798 41.9638 16.6375 41.7188 16.2133C41.4737 15.789 40.9315 15.6437 40.5075 15.8888L38.862 16.8387C38.438 17.0835 38.2925 17.626 38.5375 18.05C38.7017 18.3345 38.9998 18.4936 39.3063 18.4936Z" fill="#C4C4C4"/>
<path d="M41.3941 30.137L39.7488 29.1873C39.3246 28.9425 38.7821 29.0878 38.5373 29.5121C38.2925 29.9361 38.438 30.4786 38.862 30.7234L40.5075 31.673C40.647 31.7536 40.7994 31.792 40.95 31.792C41.2564 31.792 41.5546 31.6328 41.7188 31.3483C41.9638 30.9243 41.8183 30.3818 41.3941 30.137Z" fill="#C4C4C4"/>
<path d="M18.3604 16.8384L16.7152 15.8888C16.2909 15.6437 15.7487 15.7892 15.5039 16.2135C15.2588 16.6377 15.4043 17.18 15.8283 17.4248L17.4736 18.3747C17.6133 18.4553 17.7657 18.4936 17.9161 18.4936C18.2228 18.4936 18.5207 18.3345 18.6851 18.05C18.9299 17.6257 18.7844 17.0835 18.3604 16.8384Z" fill="#C4C4C4"/>
<circle cx="28.6113" cy="28.4152" r="27.8555" stroke="#E5E5E5"/>
</svg>
