<svg width="58" height="57" viewBox="0 0 58 57" fill="none" xmlns="http://www.w3.org/2000/svg">
<rect width="56.7111" height="56.7111" transform="translate(0.489868 0.0596313)" fill="white"/>
<path d="M28.7863 14.3449C20.3676 14.3449 13.7101 20.372 13.7101 27.6474C13.7101 30.7467 14.9365 33.7494 17.1685 36.1284C17.6102 37.9495 17.074 39.8792 15.7436 41.2096C15.1874 41.7658 15.5811 42.7236 16.3706 42.7236C18.8977 42.7236 21.3336 41.7333 23.1445 39.9879C24.9354 40.6265 26.8304 40.9499 28.7863 40.9499C37.2283 40.9499 43.9807 34.9051 43.9807 27.6474C43.9807 20.3856 37.2237 14.3449 28.7863 14.3449ZM28.7863 39.1881C26.8518 39.1881 24.9867 38.8241 23.2429 38.1297C22.9004 37.9933 22.5093 38.0829 22.2605 38.3548C21.1893 39.5254 19.7968 40.3417 18.28 40.7168C19.1157 39.1153 19.3293 37.2273 18.8206 35.4387C18.7805 35.2976 18.706 35.1688 18.6039 35.0636C16.5919 32.9912 15.472 30.3574 15.472 27.6474C15.472 21.2904 21.4513 16.1068 28.7863 16.1068C36.1865 16.1068 42.2189 21.2904 42.2189 27.6474C42.2189 34.0044 36.1865 39.1881 28.7863 39.1881Z" fill="#C4C4C4"/>
<path d="M21.6916 24.9869C20.2246 24.9869 19.0311 26.1804 19.0311 27.6474C19.0311 29.1144 20.2246 30.3079 21.6916 30.3079C23.1586 30.3079 24.3521 29.1144 24.3521 27.6474C24.3521 26.1804 23.1586 24.9869 21.6916 24.9869ZM21.6916 28.5342C21.2026 28.5342 20.8048 28.1364 20.8048 27.6474C20.8048 27.1584 21.2026 26.7606 21.6916 26.7606C22.1806 26.7606 22.5785 27.1584 22.5785 27.6474C22.5785 28.1364 22.1806 28.5342 21.6916 28.5342Z" fill="#C4C4C4"/>
<path d="M28.7863 24.9869C27.3193 24.9869 26.1258 26.1804 26.1258 27.6474C26.1258 29.1144 27.3193 30.3079 28.7863 30.3079C30.2533 30.3079 31.4468 29.1144 31.4468 27.6474C31.4468 26.1804 30.2533 24.9869 28.7863 24.9869ZM28.7863 28.5342C28.2973 28.5342 27.8995 28.1364 27.8995 27.6474C27.8995 27.1584 28.2973 26.7606 28.7863 26.7606C29.2753 26.7606 29.6731 27.1584 29.6731 27.6474C29.6731 28.1364 29.2753 28.5342 28.7863 28.5342Z" fill="#C4C4C4"/>
<path d="M35.9992 24.9869C34.5322 24.9869 33.3387 26.1804 33.3387 27.6474C33.3387 29.1144 34.5322 30.3079 35.9992 30.3079C37.4662 30.3079 38.6597 29.1144 38.6597 27.6474C38.6597 26.1804 37.4662 24.9869 35.9992 24.9869ZM35.9992 28.5342C35.5102 28.5342 35.1124 28.1364 35.1124 27.6474C35.1124 27.1584 35.5102 26.7606 35.9992 26.7606C36.4882 26.7606 36.886 27.1584 36.886 27.6474C36.886 28.1364 36.4882 28.5342 35.9992 28.5342Z" fill="#C4C4C4"/>
<circle cx="28.8454" cy="28.4152" r="27.8555" stroke="#E5E5E5"/>
</svg>
