<svg width="57" height="57" viewBox="0 0 57 57" fill="none" xmlns="http://www.w3.org/2000/svg">
<path d="M43.013 19.4927C42.3968 18.8765 41.5779 18.5373 40.7065 18.5373C38.9081 18.5373 37.4451 20.0005 37.4451 21.7989V24.9259C36.7927 25.0412 36.1918 25.3518 35.7137 25.8298L32.0195 29.5241C31.8532 29.6903 31.7597 29.916 31.7597 30.1511V36.2594H31.6966C31.207 36.2594 30.8098 36.6566 30.8098 37.1462V39.521C30.8098 41.3194 32.2728 42.7824 34.0714 42.7824H37.2668C39.0654 42.7824 40.5285 41.3194 40.5285 39.521V37.1462C40.5285 36.7305 40.2416 36.3825 39.8555 36.2864L43.0127 33.1291C43.6296 32.5125 43.9689 31.6926 43.9682 30.8208V21.7989C43.9682 20.9278 43.6289 20.1086 43.013 19.4927ZM38.7548 39.521C38.7548 40.3416 38.0874 41.009 37.2668 41.009H34.0714C33.2509 41.009 32.5835 40.3416 32.5835 39.521V38.0333H38.7548V39.521ZM42.1945 30.8217C42.1947 31.2197 42.04 31.5936 41.7587 31.8751L38.0647 35.5693C38.0439 35.5899 38.0243 35.6118 38.0056 35.6344C37.9975 35.6446 37.9904 35.655 37.9825 35.6654C37.9728 35.6783 37.9629 35.6908 37.9541 35.7042C37.9456 35.7166 37.9384 35.7298 37.9305 35.7427C37.9236 35.7545 37.916 35.7661 37.9095 35.7783C37.9026 35.7917 37.8964 35.8053 37.8901 35.819C37.8841 35.8317 37.8779 35.8441 37.8723 35.8571C37.8668 35.8702 37.8624 35.8838 37.8576 35.8972C37.8527 35.9111 37.8474 35.9247 37.843 35.9388C37.8391 35.9524 37.8361 35.9663 37.8324 35.9799C37.8289 35.9942 37.8248 36.0086 37.822 36.0231C37.8188 36.039 37.8169 36.0552 37.8146 36.0714C37.8128 36.0838 37.8105 36.0961 37.8091 36.1088C37.8063 36.1381 37.8047 36.1674 37.8047 36.1968V36.2596H33.5333V30.5185L36.968 27.0841C37.2488 26.803 37.6225 26.6483 38.0199 26.6483C38.0927 26.6483 38.1643 26.6536 38.2347 26.6638C38.2375 26.664 38.24 26.6647 38.2426 26.6649C38.5555 26.7116 38.8442 26.8562 39.0721 27.0841C39.3532 27.3652 39.5079 27.7388 39.5079 28.1363C39.5079 28.5338 39.3532 28.9074 39.0721 29.1885L36.7213 31.5393C36.3749 31.8857 36.3749 32.4471 36.7213 32.7936C37.0675 33.1397 37.6292 33.1397 37.9754 32.7933L40.3262 30.4425C40.9423 29.8266 41.2816 29.0074 41.2816 28.1363C41.2816 27.2649 40.9423 26.446 40.3264 25.8301C40.0051 25.5088 39.6287 25.2638 39.2188 25.1019V21.7989C39.2188 20.9786 39.8862 20.3109 40.7068 20.3109C41.1042 20.3109 41.4779 20.4657 41.7589 20.7467C42.0398 21.0278 42.1947 21.4014 42.1947 21.7989L42.1945 30.8217Z" fill="#C4C4C4"/>
<path d="M32.5019 25.5783C32.5028 25.5783 32.5038 25.5783 32.5047 25.5783C32.9938 25.5776 33.3901 25.1809 33.3901 24.6915C33.3901 24.6234 33.3825 24.5571 33.368 24.4934L32.7541 20.9155L35.3887 18.3474C35.6305 18.1119 35.7176 17.7594 35.6132 17.4382C35.5088 17.1172 35.2315 16.8832 34.8973 16.8347L31.2564 16.3056L29.6283 13.0066C29.4788 12.7038 29.1705 12.5121 28.8329 12.5121C28.4955 12.5121 28.1871 12.7038 28.0377 13.0063L26.4093 16.3056L22.7685 16.8347C22.4345 16.8832 22.1569 17.1172 22.0525 17.4382C21.9481 17.7594 22.0352 18.1119 22.277 18.3474L24.9116 20.9155L24.2897 24.5416C24.2327 24.8744 24.3694 25.2107 24.6424 25.4091C24.7969 25.5213 24.9798 25.5783 25.1638 25.5783C25.3049 25.5783 25.4465 25.5449 25.5763 25.4765L28.8329 23.7645L32.0894 25.4765C32.2192 25.5449 32.3608 25.5783 32.5019 25.5783ZM29.2456 21.9774C28.9874 21.8416 28.6786 21.8416 28.4202 21.9774L26.3417 23.0705L26.7387 20.756C26.7878 20.4682 26.6925 20.1747 26.4835 19.971L24.8017 18.3315L27.1257 17.9938C27.4146 17.952 27.6643 17.7705 27.7934 17.5089L28.8329 15.4029L29.8721 17.5089C30.0015 17.7705 30.2511 17.952 30.54 17.9938L32.864 18.3315L31.1823 19.971C30.9733 20.1747 30.8779 20.4682 30.9273 20.756L31.3243 23.0705L29.2456 21.9774Z" fill="#C4C4C4"/>
<path d="M25.9692 36.2596H25.9061V30.1513C25.9061 29.916 25.8128 29.6906 25.6465 29.5243L21.9523 25.8301C21.4629 25.3407 20.8553 25.0405 20.2207 24.9278V21.7989C20.2207 20.0005 18.7576 18.5375 16.9593 18.5375H16.959C16.0879 18.5375 15.269 18.8767 14.653 19.4927C14.0369 20.1086 13.6976 20.9278 13.6976 21.7989V30.8201C13.6969 31.6924 14.0362 32.5125 14.6528 33.1291L17.8103 36.2866C17.4241 36.3825 17.1373 36.7305 17.1373 37.1464V39.5212C17.1373 41.3196 18.6006 42.7827 20.399 42.7827H23.5943C25.3929 42.7827 26.856 41.3196 26.856 39.5212V37.1464C26.856 36.6566 26.459 36.2596 25.9692 36.2596ZM15.4713 30.821V21.7989C15.4713 21.4014 15.626 21.0278 15.9071 20.7467C16.1881 20.4657 16.5616 20.3109 16.959 20.3109H16.9593C17.7796 20.3109 18.447 20.9786 18.447 21.7989V25.1037C18.0435 25.2624 17.6653 25.5042 17.3396 25.8298C16.7235 26.446 16.3844 27.2649 16.3844 28.1361C16.3844 29.0074 16.7237 29.8266 17.3399 30.4425L19.6907 32.7933C20.0368 33.1397 20.5983 33.1397 20.9447 32.7933C21.2911 32.4471 21.2911 31.8855 20.9447 31.5393L18.5939 29.1883C18.3128 28.9072 18.1581 28.5335 18.1581 28.1363C18.1581 27.7388 18.3128 27.3652 18.5939 27.0841C19.174 26.504 20.1179 26.504 20.698 27.0841L24.1324 30.5185V36.2596H19.8611V36.1968C19.8611 36.1674 19.8595 36.1381 19.8567 36.1088C19.8553 36.0961 19.853 36.0838 19.8512 36.0714C19.8489 36.0552 19.847 36.039 19.8438 36.0231C19.841 36.0086 19.8368 35.9942 19.8334 35.9799C19.8299 35.9663 19.8269 35.9524 19.8228 35.9388C19.8186 35.9247 19.8133 35.9111 19.8082 35.8972C19.8034 35.8838 19.799 35.8702 19.7934 35.8571C19.7881 35.8441 19.7819 35.8317 19.7756 35.8189C19.7694 35.8053 19.7634 35.7917 19.7562 35.7783C19.7498 35.7661 19.7422 35.7545 19.7352 35.7427C19.7274 35.7298 19.7202 35.7166 19.7117 35.7042C19.7029 35.6908 19.693 35.6783 19.6833 35.6654C19.6756 35.655 19.6685 35.6446 19.6602 35.6344C19.6415 35.6118 19.6218 35.5898 19.6013 35.5693L15.9071 31.8749C15.6255 31.5936 15.4708 31.2197 15.4713 30.821ZM25.0823 39.521C25.0823 40.3416 24.4149 41.009 23.5943 41.009H20.399C19.5786 41.009 18.9112 40.3416 18.9112 39.521V38.0333H25.0823V39.521Z" fill="#C4C4C4"/>
<circle cx="28.5954" cy="28.4152" r="27.8555" stroke="#E5E5E5"/>
</svg>
